<?xml version="1.0" encoding="UTF-8" standalone="no"?>
<svg width="920px" height="600px" viewBox="0 0 920 600" version="1.1" xmlns="http://www.w3.org/2000/svg" xmlns:xlink="http://www.w3.org/1999/xlink">
    <!-- Generator: Sketch 42 (36781) - http://www.bohemiancoding.com/sketch -->
    <title>consultancy_service_2_plan</title>
    <desc>Created with Sketch.</desc>
    <defs>
        <polygon id="path-1" points="643.603571 114.285714 0.746428571 114.285714 0.746428571 0.000285714286 643.603571 0.000285714286"></polygon>
        <polygon id="path-3" points="0.541428571 17.3271429 29.9842857 37.1742857 33.41 53.6885714 38.0071429 44.3085714 68.7342857 69.8 107.142857 0.945714286"></polygon>
        <polygon id="path-5" points="0.551428571 9.40285714 11.1557143 5.00142857 5.15142857 0.0228571429"></polygon>
        <polygon id="path-7" points="1.41285714 37.1742857 4.83714286 53.6885714 9.43714286 44.3085714 78.5714286 0.945714286"></polygon>
        <polygon id="path-9" points="29.9842857 20.0314286 58.5285714 6.63 0.541428571 0.182857143"></polygon>
        <polygon id="path-11" points="0.867142857 17.1642857 31.5914286 42.6571429 26.8042857 0.897142857"></polygon>
    </defs>
    <g id="Page-1" stroke="none" stroke-width="1" fill="none" fill-rule="evenodd">
        <g id="consultancy_service_2_plan">
            <g id="Group" transform="translate(122.000000, 0.000000)">
                <g id="Group-3" transform="translate(47.571429, 485.714286)">
                    <mask id="mask-2" fill="white">
                        <use xlink:href="#path-1"></use>
                    </mask>
                    <g id="Clip-2"></g>
                    <path d="M643.603571,57.1431429 C643.603571,88.7017143 499.695,114.286 322.175,114.286 C144.655,114.286 0.746428571,88.7017143 0.746428571,57.1431429 C0.746428571,25.5831429 144.655,0.000285714286 322.175,0.000285714286 C499.695,0.000285714286 643.603571,25.5831429 643.603571,57.1431429" id="Fill-1" fill="#F1F2F2" mask="url(#mask-2)"></path>
                </g>
                <path d="M455.460714,562.150143 C455.460714,572.407286 417.085,580.721571 369.746429,580.721571 C322.407857,580.721571 284.032143,572.407286 284.032143,562.150143 C284.032143,551.893 322.407857,543.578714 369.746429,543.578714 C417.085,543.578714 455.460714,551.893 455.460714,562.150143" id="Fill-4" fill="#E6E7E8"></path>
                <path d="M575.168429,206.458143 L164.324143,206.458143 C159.591286,206.458143 155.755571,210.295286 155.755571,215.026714 L155.755571,515.555286 L583.737,515.555286 L583.737,215.026714 C583.737,210.295286 579.901286,206.458143 575.168429,206.458143" id="Fill-6" fill="#003349"></path>
                <path d="M599.588143,535.453714 L139.903857,535.453714 L139.903857,517.922286 C139.903857,516.695143 140.898143,515.700857 142.123857,515.700857 L597.368143,515.700857 C598.593857,515.700857 599.588143,516.695143 599.588143,517.922286 L599.588143,535.453714 Z" id="Fill-8" fill="#3C5C6E"></path>
                <path d="M423.790714,519.457571 L315.702143,519.457571 C313.730714,519.457571 312.133571,517.860429 312.133571,515.889 L312.133571,499.704714 L427.359286,499.704714 L427.359286,515.889 C427.359286,517.860429 425.760714,519.457571 423.790714,519.457571" id="Fill-10" fill="#6C8591"></path>
                <polygon id="Fill-12" fill="#FFFFFF" points="171.605714 499.704286 567.885714 499.704286 567.885714 222.308571 171.605714 222.308571"></polygon>
                <polygon id="Fill-14" fill="#F1F2F2" points="171.605714 253.131429 567.885714 253.131429 567.885714 222.31 171.605714 222.31"></polygon>
                <path d="M198.553571,237.720714 C198.553571,240.699286 196.069286,243.113571 193.005,243.113571 C189.942143,243.113571 187.457857,240.699286 187.457857,237.720714 C187.457857,234.740714 189.942143,232.326429 193.005,232.326429 C196.069286,232.326429 198.553571,234.740714 198.553571,237.720714" id="Fill-15" fill="#3DE3C9"></path>
                <path d="M220.745286,237.720714 C220.745286,240.699286 218.261,243.113571 215.196714,243.113571 C212.133857,243.113571 209.649571,240.699286 209.649571,237.720714 C209.649571,234.740714 212.133857,232.326429 215.196714,232.326429 C218.261,232.326429 220.745286,234.740714 220.745286,237.720714" id="Fill-16" fill="#003349"></path>
                <path d="M242.937,237.720714 C242.937,240.699286 240.452714,243.113571 237.388429,243.113571 C234.325571,243.113571 231.841286,240.699286 231.841286,237.720714 C231.841286,234.740714 234.325571,232.326429 237.388429,232.326429 C240.452714,232.326429 242.937,234.740714 242.937,237.720714" id="Fill-17" fill="#7777FF"></path>
                <path d="M15.7185714,138 L3.80428571,138 C1.70142857,138 0,139.702857 0,141.804286 L0,197.601429 C0,199.701429 1.70142857,201.405714 3.80428571,201.405714 L79.1757143,201.405714 C58.92,181.174286 35.9571429,158.232857 15.7185714,138" id="Fill-22" fill="#002337"></path>
                <path d="M91.5828571,201.405714 C93.6842857,201.405714 95.3871429,199.702857 95.3871429,197.601429 L95.3871429,141.804286 C95.3871429,139.704286 93.6842857,138 91.5828571,138 L16,138 C36.2371429,158.232857 59.2014286,181.174286 79.4571429,201.405714 L91.5828571,201.405714 Z" id="Fill-23" fill="#003349"></path>
                <path d="M60.0971429,171.480092 C61.7128571,170.49152 61.7128571,168.142949 60.0971429,167.154377 L40.8614286,155.377235 C39.1714286,154.342949 37,155.557235 37,157.540092 L37,158.855806 L53.6028571,175.457235 L60.0971429,171.480092 Z" id="Fill-24" fill="#3DE3C9"></path>
                <path d="M37,159 L37,181.238571 C37,183.22 39.1714286,184.437143 40.8614286,183.401429 L53.6028571,175.601429 L37,159 Z" id="Fill-25" fill="#00C3B9"></path>
                <path d="M704.999571,171.903143 C704.999571,196.853143 684.773857,217.078857 659.822429,217.078857 C634.873857,217.078857 614.646714,196.853143 614.646714,171.903143 C614.646714,146.953143 634.873857,126.727429 659.822429,126.727429 C684.773857,126.727429 704.999571,146.953143 704.999571,171.903143" id="Fill-26" fill="#002337"></path>
                <path d="M691.767857,203.846571 C709.409286,186.203714 709.409286,157.600857 691.767857,139.958 C674.125,122.316571 645.520714,122.316571 627.879286,139.958 L691.767857,203.846571 Z" id="Fill-27" fill="#003349"></path>
                <path d="M698.049286,171.903143 C698.049286,193.013143 680.935,210.128857 659.823571,210.128857 C638.712143,210.128857 621.597857,193.013143 621.597857,171.903143 C621.597857,150.791714 638.712143,133.676 659.823571,133.676 C680.935,133.676 698.049286,150.791714 698.049286,171.903143" id="Fill-28" fill="#3DE3C9"></path>
                <path d="M632.794,144.873286 C617.865429,159.800429 617.865429,184.004714 632.794,198.933286 C647.722571,213.860429 671.925429,213.860429 686.852571,198.933286 L632.794,144.873286 Z" id="Fill-29" fill="#00C3B9"></path>
                <path d="M669.503714,172.547714 C669.503714,178.250571 664.880857,182.874857 659.178,182.874857 C653.475143,182.874857 648.852286,178.250571 648.852286,172.547714 C648.852286,166.844857 653.475143,162.222 659.178,162.222 C664.880857,162.222 669.503714,166.844857 669.503714,172.547714" id="Fill-30" fill="#00B4AA"></path>
                <path d="M670.149571,171.903143 C670.149571,177.604571 665.526714,182.228857 659.822429,182.228857 C654.121,182.228857 649.496714,177.604571 649.496714,171.903143 C649.496714,166.200286 654.121,161.576 659.822429,161.576 C665.526714,161.576 670.149571,166.200286 670.149571,171.903143" id="Fill-31" fill="#B9F6E6"></path>
                <path d="M663.993714,171.903143 C663.993714,174.204571 662.126571,176.073143 659.823714,176.073143 C657.520857,176.073143 655.653714,174.204571 655.653714,171.903143 C655.653714,169.600286 657.520857,167.733143 659.823714,167.733143 C662.126571,167.733143 663.993714,169.600286 663.993714,171.903143" id="Fill-32" fill="#003349"></path>
                <polygon id="Fill-33" fill="#003349" points="659.177143 142.017143 660.468571 142.017143 660.468571 133.031429 659.177143 133.031429"></polygon>
                <polygon id="Fill-34" fill="#003349" points="659.177143 210.772857 660.468571 210.772857 660.468571 201.788571 659.177143 201.788571"></polygon>
                <polygon id="Fill-35" fill="#003349" points="620.952857 172.547143 629.938571 172.547143 629.938571 171.257143 620.952857 171.257143"></polygon>
                <polygon id="Fill-36" fill="#003349" points="689.708571 172.547143 698.694286 172.547143 698.694286 171.257143 689.708571 171.257143"></polygon>
                <polygon id="Fill-37" fill="#003349" points="663.348571 172.547143 677.894286 172.547143 677.894286 171.257143 663.348571 171.257143"></polygon>
                <polygon id="Fill-38" fill="#003349" points="656.825857 169.817571 644.133 157.124714 645.045857 156.213286 657.738714 168.904714"></polygon>
                <polygon id="Fill-39" fill="#B9F6E6" points="195.382857 483.852857 353.894286 483.852857 353.894286 269.862857 195.382857 269.862857"></polygon>
                <polygon id="Fill-40" fill="#D1D3D4" points="385.597143 368.932857 449.001429 368.932857 449.001429 269.862857 385.597143 269.862857"></polygon>
                <polygon id="Fill-41" fill="#D1D3D4" points="464.852857 368.932857 528.257143 368.932857 528.257143 269.862857 464.852857 269.862857"></polygon>
                <polygon id="Fill-42" fill="#D1D3D4" points="385.597143 483.852857 528.257143 483.852857 528.257143 384.782857 385.597143 384.782857"></polygon>
                <path d="M307.926571,333.267571 C307.926571,351.651857 293.023714,366.556143 274.639429,366.556143 C256.255143,366.556143 241.350857,351.651857 241.350857,333.267571 C241.350857,314.883286 256.255143,299.980429 274.639429,299.980429 C293.023714,299.980429 307.926571,314.883286 307.926571,333.267571" id="Fill-43" fill="#64ECD3"></path>
                <polygon id="Fill-44" fill="#003349" points="235.011429 391.761429 314.267143 391.761429 314.267143 388.904286 235.011429 388.904286"></polygon>
                <polygon id="Fill-45" fill="#003349" points="235.011429 407.611429 314.267143 407.611429 314.267143 404.754286 235.011429 404.754286"></polygon>
                <polygon id="Fill-46" fill="#003349" points="235.011429 423.462857 314.267143 423.462857 314.267143 420.605714 235.011429 420.605714"></polygon>
                <polygon id="Fill-47" fill="#003349" points="235.011429 439.314286 314.267143 439.314286 314.267143 436.457143 235.011429 436.457143"></polygon>
                <polygon id="Fill-48" fill="#003349" points="246.9 455.164286 302.378571 455.164286 302.378571 452.307143 246.9 452.307143"></polygon>
                <path d="M419.188429,567.157143 L320.304143,567.157143 C314.781286,567.157143 310.304143,562.678571 310.304143,557.157143 L310.304143,331.464286 C310.304143,325.94 314.781286,321.464286 320.304143,321.464286 L419.188429,321.464286 C424.711286,321.464286 429.188429,325.94 429.188429,331.464286 L429.188429,557.157143 C429.188429,562.678571 424.711286,567.157143 419.188429,567.157143" id="Fill-49" fill="#003349"></path>
                <path d="M369.746429,546.352143 C367.283571,546.352143 365.055,547.349286 363.440714,548.963571 C361.829286,550.576429 360.829286,552.806429 360.829286,555.267857 C360.829286,560.192143 364.822143,564.183571 369.746429,564.183571 C372.209286,564.183571 374.437857,563.186429 376.052143,561.572143 C377.665,559.959286 378.662143,557.730714 378.662143,555.267857 C378.662143,550.343571 374.670714,546.352143 369.746429,546.352143" id="Fill-50" fill="#7777FF"></path>
                <path d="M420.271714,543.379286 L319.220286,543.379286 C318.126,543.379286 317.238857,542.492143 317.238857,541.397857 L317.238857,391.800714 L317.238857,351.185 C317.238857,350.089286 318.126,349.202143 319.220286,349.202143 L420.271714,349.202143 C421.366,349.202143 422.253143,350.089286 422.253143,351.185 L422.253143,496.816429 L422.253143,541.397857 C422.253143,542.492143 421.366,543.379286 420.271714,543.379286" id="Fill-51" fill="#B9F6E6"></path>
                <path d="M359.839143,338.305286 C359.839143,339.945286 358.507714,341.276714 356.866286,341.276714 C355.226286,341.276714 353.894857,339.945286 353.894857,338.305286 C353.894857,336.663857 355.226286,335.332429 356.866286,335.332429 C358.507714,335.332429 359.839143,336.663857 359.839143,338.305286" id="Fill-52" fill="#7777FF"></path>
                <path d="M383.949857,341.276857 L365.449857,341.276857 C364.265571,341.276857 363.307,340.318286 363.307,339.134 L363.307,337.475429 C363.307,336.292571 364.265571,335.332571 365.449857,335.332571 L383.949857,335.332571 C385.134143,335.332571 386.092714,336.292571 386.092714,337.475429 L386.092714,339.134 C386.092714,340.318286 385.134143,341.276857 383.949857,341.276857" id="Fill-53" fill="#7777FF"></path>
                <path d="M397.485714,411.034143 C397.485714,426.354143 385.067143,438.772714 369.747143,438.772714 C354.425714,438.772714 342.007143,426.354143 342.007143,411.034143 C342.007143,395.712714 354.425714,383.294143 369.747143,383.294143 C385.067143,383.294143 397.485714,395.712714 397.485714,411.034143" id="Fill-54" fill="#64ECD3"></path>
                <path d="M338.043714,457.312 L401.448,457.312" id="Stroke-55" stroke="#003349" stroke-width="1.42857143"></path>
                <path d="M338.043714,470.305857 L401.448,470.305857" id="Stroke-56" stroke="#003349" stroke-width="1.42857143"></path>
                <path d="M338.043714,483.301143 L401.448,483.301143" id="Stroke-57" stroke="#003349" stroke-width="1.42857143"></path>
                <path d="M338.043714,496.295 L401.448,496.295" id="Stroke-58" stroke="#003349" stroke-width="1.42857143"></path>
                <path d="M347.554714,509.288857 L391.937571,509.288857" id="Stroke-59" stroke="#003349" stroke-width="1.42857143"></path>
                <polygon id="Fill-60" fill="#9292FF" points="660.537429 335.884857 506.436 335.884857 506.436 334.456286 659.108857 334.456286 659.108857 241.089143 660.537429 241.089143"></polygon>
                <polygon id="Fill-61" fill="#9292FF" points="507.478714 338.730857 501.311571 335.170857 507.478714 331.608"></polygon>
                <path d="M665.194286,241.392571 C665.194286,238.426857 662.788571,236.021143 659.822857,236.021143 C656.857143,236.021143 654.451429,238.426857 654.451429,241.392571 C654.451429,244.358286 656.857143,246.764 659.822857,246.764 C662.788571,246.764 665.194286,244.358286 665.194286,241.392571" id="Fill-62" fill="#FFFFFF"></path>
                <path d="M655.166286,241.392571 C655.166286,243.961143 657.254857,246.049714 659.823429,246.049714 C662.392,246.049714 664.480571,243.961143 664.480571,241.392571 C664.480571,238.824 662.392,236.735429 659.823429,236.735429 C657.254857,236.735429 655.166286,238.824 655.166286,241.392571 C655.166286,243.961143 655.166286,238.824 655.166286,241.392571 M665.909143,241.392571 C665.909143,244.748286 663.177714,247.478286 659.823429,247.478286 C656.467714,247.478286 653.737714,244.748286 653.737714,241.392571 C653.737714,238.036857 656.467714,235.306857 659.823429,235.306857 C663.177714,235.306857 665.909143,238.036857 665.909143,241.392571 C665.909143,244.748286 665.909143,238.036857 665.909143,241.392571" id="Fill-63" fill="#9292FF"></path>
                <polygon id="Fill-64" fill="#9292FF" points="366.857143 237.125714 368.285714 237.125714 368.285714 132.788571 366.857143 132.788571"></polygon>
                <polygon id="Fill-65" fill="#9292FF" points="364.009857 133.831286 367.571286 127.664143 371.132714 133.831286"></polygon>
                <path d="M362.200429,236.822286 C362.200429,239.788 364.606143,242.193714 367.571857,242.193714 C370.537571,242.193714 372.943286,239.788 372.943286,236.822286 C372.943286,233.856571 370.537571,231.450857 367.571857,231.450857 C364.606143,231.450857 362.200429,233.856571 362.200429,236.822286" id="Fill-66" fill="#FFFFFF"></path>
                <path d="M372.228286,236.822286 C372.228286,234.253714 370.139714,232.165143 367.571143,232.165143 C365.002571,232.165143 362.914,234.253714 362.914,236.822286 C362.914,239.390857 365.002571,241.479429 367.571143,241.479429 C370.139714,241.479429 372.228286,239.390857 372.228286,236.822286 C372.228286,234.253714 372.228286,239.390857 372.228286,236.822286 M361.485429,236.822286 C361.485429,233.466571 364.216857,230.736571 367.571143,230.736571 C370.926857,230.736571 373.656857,233.466571 373.656857,236.822286 C373.656857,240.178 370.926857,242.908 367.571143,242.908 C364.216857,242.908 361.485429,240.178 361.485429,236.822286 C361.485429,233.466571 361.485429,240.178 361.485429,236.822286" id="Fill-67" fill="#9292FF"></path>
                <polygon id="Fill-68" fill="#9292FF" points="410.555714 437.331429 670.527143 437.331429 670.527143 435.902857 410.555714 435.902857"></polygon>
                <polygon id="Fill-69" fill="#9292FF" points="669.486286 433.055571 675.653429 436.617 669.486286 440.178429"></polygon>
                <path d="M410.860429,431.246143 C407.894714,431.246143 405.489,433.651857 405.489,436.617571 C405.489,439.583286 407.894714,441.989 410.860429,441.989 C413.826143,441.989 416.231857,439.583286 416.231857,436.617571 C416.231857,433.651857 413.826143,431.246143 410.860429,431.246143" id="Fill-70" fill="#FFFFFF"></path>
                <path d="M410.860429,441.274 C413.429,441.274 415.517571,439.185429 415.517571,436.616857 C415.517571,434.048286 413.429,431.959714 410.860429,431.959714 C408.291857,431.959714 406.203286,434.048286 406.203286,436.616857 C406.203286,439.185429 408.291857,441.274 410.860429,441.274 C413.429,441.274 408.291857,441.274 410.860429,441.274 M410.860429,430.531143 C414.216143,430.531143 416.946143,433.262571 416.946143,436.616857 C416.946143,439.972571 414.216143,442.702571 410.860429,442.702571 C407.504714,442.702571 404.774714,439.972571 404.774714,436.616857 C404.774714,433.262571 407.504714,430.531143 410.860429,430.531143 C414.216143,430.531143 407.504714,430.531143 410.860429,430.531143" id="Fill-71" fill="#9292FF"></path>
                <path d="M183.069429,441.988286 C186.035143,441.988286 188.440857,439.582571 188.440857,436.616857 C188.440857,433.651143 186.035143,431.245429 183.069429,431.245429 C180.103714,431.245429 177.698,433.651143 177.698,436.616857 C177.698,439.582571 180.103714,441.988286 183.069429,441.988286" id="Fill-74" fill="#FFFFFF"></path>
                <polygon id="Fill-76" fill="#9292FF" points="218.79 294.671143 47.2528571 294.671143 47.2528571 225.766857 48.6814286 225.766857 48.6814286 293.242571 218.79 293.242571"></polygon>
                <polygon id="Fill-77" fill="#9292FF" points="217.748 290.395143 223.916571 293.956571 217.748 297.518"></polygon>
                <path d="M53.3381429,226.070286 C53.3381429,223.104571 50.9324286,220.698857 47.9667143,220.698857 C45.001,220.698857 42.5952857,223.104571 42.5952857,226.070286 C42.5952857,229.036 45.001,231.441714 47.9667143,231.441714 C50.9324286,231.441714 53.3381429,229.036 53.3381429,226.070286" id="Fill-78" fill="#FFFFFF"></path>
                <path d="M43.3101429,226.070286 C43.3101429,228.638857 45.3987143,230.727429 47.9672857,230.727429 C50.5358571,230.727429 52.6244286,228.638857 52.6244286,226.070286 C52.6244286,223.501714 50.5358571,221.413143 47.9672857,221.413143 C45.3987143,221.413143 43.3101429,223.501714 43.3101429,226.070286 C43.3101429,228.638857 43.3101429,223.501714 43.3101429,226.070286 M54.053,226.070286 C54.053,229.426 51.3215714,232.156 47.9672857,232.156 C44.6115714,232.156 41.8815714,229.426 41.8815714,226.070286 C41.8815714,222.714571 44.6115714,219.984571 47.9672857,219.984571 C51.3215714,219.984571 54.053,222.714571 54.053,226.070286 C54.053,229.426 54.053,222.714571 54.053,226.070286" id="Fill-79" fill="#9292FF"></path>
                <g id="Group-83" transform="translate(689.000000, 398.571429)">
                    <mask id="mask-4" fill="white">
                        <use xlink:href="#path-3"></use>
                    </mask>
                    <g id="Clip-82"></g>
                    <polygon id="Fill-81" fill="#64ECD3" mask="url(#mask-4)" points="97.4707143 78.9498571 -11.0321429 59.817 3.29642857 -21.4472857 111.799286 -2.31585714"></polygon>
                </g>
                <g id="Group-86" transform="translate(721.857143, 442.857143)">
                    <mask id="mask-6" fill="white">
                        <use xlink:href="#path-5"></use>
                    </mask>
                    <g id="Clip-85"></g>
                    <polygon id="Fill-84" fill="#00C3B9" mask="url(#mask-6)" points="13.3447143 15.7411429 -4.10528571 12.6654286 -0.966714286 -5.13885714 16.4832857 -2.06171429"></polygon>
                </g>
                <g id="Group-89" transform="translate(717.571429, 398.571429)">
                    <mask id="mask-8" fill="white">
                        <use xlink:href="#path-7"></use>
                    </mask>
                    <g id="Clip-88"></g>
                    <polygon id="Fill-87" fill="#00D7C9" mask="url(#mask-8)" points="70.5901429 69.3655714 -5.96557143 55.867 6.673 -15.8144286 83.2301429 -2.31585714"></polygon>
                </g>
                <g id="Group-92" transform="translate(689.000000, 415.714286)">
                    <mask id="mask-10" fill="white">
                        <use xlink:href="#path-9"></use>
                    </mask>
                    <g id="Clip-91"></g>
                    <polygon id="Fill-90" fill="#3DE2C8" mask="url(#mask-10)" points="58.637 29.1674286 -6.62157143 17.6602857 -2.073 -8.13828571 63.187 3.36742857"></polygon>
                </g>
                <g id="Group-95" transform="translate(726.142857, 425.714286)">
                    <mask id="mask-12" fill="white">
                        <use xlink:href="#path-11"></use>
                    </mask>
                    <g id="Clip-94"></g>
                    <polygon id="Fill-93" fill="#3DE2C8" mask="url(#mask-12)" points="34.8521429 47.3134286 -7.22357143 39.8948571 1.16928571 -7.70657143 43.245 -0.286571429"></polygon>
                </g>
                <path d="M722.618143,464.650143 C722.392429,464.650143 722.171,464.544429 722.032429,464.345857 C721.806714,464.023 721.883857,463.577286 722.208143,463.351571 L732.582429,456.087286 C732.903857,455.858714 733.351,455.938714 733.576714,456.261571 C733.802429,456.584429 733.723857,457.030143 733.401,457.255857 L723.026714,464.520143 C722.902429,464.608714 722.759571,464.650143 722.618143,464.650143 M679.932429,494.540143 C679.706714,494.540143 679.485286,494.434429 679.346714,494.235857 C679.121,493.911571 679.198143,493.467286 679.522429,493.241571 L714.128143,469.010143 C714.448143,468.783 714.896714,468.861571 715.122429,469.184429 C715.348143,469.507286 715.269571,469.953 714.946714,470.178714 L680.341,494.410143 C680.216714,494.498714 680.073857,494.540143 679.932429,494.540143" id="Fill-96" fill="#3C5C6E"></path>
                <path d="M692.271429,471.575429 C692.045714,471.575429 691.824286,471.469714 691.685714,471.271143 C691.46,470.948286 691.537143,470.502571 691.861429,470.276857 L714.075714,454.721143 C714.398571,454.494 714.844286,454.574 715.07,454.895429 C715.297143,455.219714 715.218571,455.664 714.894286,455.891143 L692.68,471.445429 C692.555714,471.534 692.412857,471.575429 692.271429,471.575429 M682.005714,478.762571 C681.781429,478.762571 681.558571,478.656857 681.42,478.458286 C681.194286,478.135429 681.272857,477.689714 681.595714,477.464 L688.857143,472.379714 C689.178571,472.152571 689.625714,472.231143 689.851429,472.555429 C690.077143,472.878286 690,473.324 689.675714,473.549714 L682.415714,478.632571 C682.291429,478.721143 682.148571,478.762571 682.005714,478.762571" id="Fill-98" fill="#3C5C6E"></path>
                <path d="M709.880286,444.542714 C709.654571,444.542714 709.433143,444.437 709.294571,444.238429 C709.068857,443.915571 709.146,443.469857 709.470286,443.244143 L711.368857,441.914143 C711.693143,441.687 712.138857,441.765571 712.364571,442.088429 C712.590286,442.412714 712.511714,442.857 712.188857,443.084143 L710.288857,444.412714 C710.164571,444.501286 710.021714,444.542714 709.880286,444.542714 M692.928857,456.412714 C692.703143,456.412714 692.481714,456.305571 692.343143,456.108429 C692.116,455.784143 692.194571,455.339857 692.518857,455.112714 L704.424571,446.777 C704.746,446.549857 705.193143,446.629857 705.418857,446.952714 C705.644571,447.275571 705.566,447.721286 705.243143,447.947 L693.337429,456.282714 C693.213143,456.369857 693.070286,456.412714 692.928857,456.412714 M653.286,484.169857 C653.061714,484.169857 652.838857,484.064143 652.700286,483.865571 C652.474571,483.542714 652.553143,483.097 652.876,482.871286 L687.208857,458.831286 C687.530286,458.602714 687.977429,458.682714 688.204571,459.005571 C688.430286,459.329857 688.351714,459.774143 688.028857,459.999857 L653.694571,484.039857 C653.571714,484.128429 653.427429,484.169857 653.286,484.169857" id="Fill-100" fill="#3C5C6E"></path>
                <path d="M334.207286,111.812571 L334.207286,102.302571 C334.207286,83.2397143 349.660143,67.7882857 368.721571,67.7882857 C387.783,67.7882857 403.237286,83.2397143 403.237286,102.302571 L403.237286,111.812571 L334.207286,111.812571 Z" id="Fill-102" fill="#64ECD3"></path>
                <path d="M375.624571,67.058 C375.624571,70.8694286 372.534571,73.9608571 368.721714,73.9608571 C364.910286,73.9608571 361.818857,70.8694286 361.818857,67.058 L361.818857,62.948 L375.624571,62.948 L375.624571,67.058 Z" id="Fill-104" fill="#D1D3D4"></path>
                <path d="M368.721714,73.961 C364.910286,73.961 361.818857,70.8695714 361.818857,67.0581429 L361.818857,68.2081429 C361.818857,72.021 364.910286,75.111 368.721714,75.111 C372.534571,75.111 375.624571,72.021 375.624571,68.2081429 L375.624571,67.0581429 C375.624571,70.8695714 372.534571,73.961 368.721714,73.961" id="Fill-106" fill="#3DE3C9"></path>
                <path d="M345.711857,23.0108571 L345.711857,41.868 C345.711857,54.5765714 356.013286,64.878 368.721857,64.878 C381.429,64.878 391.731857,54.5765714 391.731857,41.868 L391.731857,23.0108571 L345.711857,23.0108571 Z" id="Fill-108" fill="#E6E7E8"></path>
                <path d="M352.203143,7.64257143 L347.893143,7.22114286 L347.894571,-0.000285714286 L347.893143,-0.000285714286 L345.553143,-0.000285714286 C345.234571,-0.000285714286 344.923143,0.0268571429 344.610286,0.0482857143 C337.514571,0.534 331.906,6.42828571 331.906,13.6482857 C331.906,21.184 338.016,27.2954286 345.553143,27.2954286 L371.856,27.2954286 L352.203143,7.64257143 Z" id="Fill-110" fill="#002337"></path>
                <path d="M385.025429,27.2952857 C386.165429,27.2952857 387.089714,28.2181429 387.089714,29.3595714 L387.089714,32.9695714 C387.089714,33.8224286 387.782571,34.5152857 388.636857,34.5152857 L391.731143,34.5152857 L391.731143,20.8995714 C391.731143,15.5695714 387.686857,11.111 382.381143,10.5924286 L352.202571,7.64242857 L371.855429,27.2952857 L385.025429,27.2952857 Z" id="Fill-113" fill="#003349"></path>
            </g>
        </g>
    </g>
</svg>