<?xml version="1.0" encoding="UTF-8" standalone="no"?>
<svg width="815px" height="841px" viewBox="0 0 815 841" version="1.1" xmlns="http://www.w3.org/2000/svg" xmlns:xlink="http://www.w3.org/1999/xlink">
    <!-- Generator: Sketch 42 (36781) - http://www.bohemiancoding.com/sketch -->
    <title>campaign_reports</title>
    <desc>Created with Sketch.</desc>
    <defs>
        <polygon id="path-1" points="72.2001165 0 0 0 0 115.762492 72.2001165 115.762492 144.400233 115.762492 144.400233 0"></polygon>
        <polygon id="path-3" points="72.8934838 115.762492 145.285436 115.762492 145.285436 0 72.8934838 0 0.501531256 0 0.501531256 115.762492"></polygon>
        <polygon id="path-5" points="0 174 125 174 125 0 0 0"></polygon>
        <polygon id="path-7" points="0 174 125 174 125 0 0 0"></polygon>
        <polygon id="path-9" points="0 174 125 174 125 0 0 0"></polygon>
        <polygon id="path-11" points="0 174 125 174 125 0 0 0"></polygon>
        <polygon id="path-13" points="0 174 125 174 125 0 0 0"></polygon>
        <polygon id="path-15" points="0 174 125 174 125 0 0 0"></polygon>
        <polygon id="path-17" points="0 174 125 174 125 0 0 0"></polygon>
        <polygon id="path-19" points="0 174 125 174 125 0 0 0"></polygon>
        <polygon id="path-21" points="0 174 125 174 125 0 0 0"></polygon>
        <polygon id="path-23" points="0 174 125 174 125 0 0 0"></polygon>
        <polygon id="path-25" points="0 174 125 174 125 0 0 0"></polygon>
        <polygon id="path-27" points="0 174 125 174 125 0 0 0"></polygon>
    </defs>
    <g id="Page-1" stroke="none" stroke-width="1" fill="none" fill-rule="evenodd">
        <g id="campaign_reports">
            <g id="Page-1">
                <g id="consultancy_service_1_rollout">
                    <g id="Group" transform="translate(0.000000, 207.000000)">
                        <g id="Page-1" fill-rule="nonzero">
                            <polygon id="Fill-4" fill="#D1D3D4" points="0 485.923512 532.823959 485.923512 532.823959 131 0 131"></polygon>
                            <polygon id="Fill-6" fill="#F1F2F2" points="3 482.923512 535.821814 482.923512 535.821814 128 3 128"></polygon>
                            <path d="M373.127438,158.237884 L160,158.237884 L160,111.439825 C160,107.883344 162.885696,105 166.445079,105 L366.682359,105 C370.241742,105 373.127438,107.883344 373.127438,111.439825 L373.127438,158.237884 Z" id="Fill-7" fill="#9292FF"></path>
                            <path d="M376.129584,154.240027 L163,154.240027 L163,107.439825 C163,103.883344 165.885696,101 169.445079,101 L369.684505,101 C373.243887,101 376.129584,103.883344 376.129584,107.439825 L376.129584,154.240027 Z" id="Fill-8" fill="#ADADFF"></path>
                            <path d="M244.864188,129.42303 C244.864188,136.28303 239.298764,141.846061 232.433167,141.846061 C225.565425,141.846061 220,136.28303 220,129.42303 C220,122.563031 225.565425,117 232.433167,117 C239.298764,117 244.864188,122.563031 244.864188,129.42303" id="Fill-9" fill="#00B4AA"></path>
                            <path d="M315.866334,129.42303 C315.866334,136.28303 310.298764,141.846061 303.433167,141.846061 C296.56757,141.846061 291,136.28303 291,129.42303 C291,122.563031 296.56757,117 303.433167,117 C310.298764,117 315.866334,122.563031 315.866334,129.42303" id="Fill-10" fill="#00B4AA"></path>
                            <path d="M246.866334,127.42303 C246.866334,134.28303 241.298764,139.843917 234.433167,139.843917 C227.56757,139.843917 222,134.28303 222,127.42303 C222,120.560887 227.56757,115 234.433167,115 C241.298764,115 246.866334,120.560887 246.866334,127.42303" id="Fill-11" fill="#3DE3C9"></path>
                            <path d="M317.864188,127.42303 C317.864188,134.28303 312.298764,139.843917 305.431021,139.843917 C298.565425,139.843917 293,134.28303 293,127.42303 C293,120.560887 298.565425,115 305.431021,115 C312.298764,115 317.864188,120.560887 317.864188,127.42303" id="Fill-12" fill="#3DE3C9"></path>
                            <polygon id="Fill-13" fill="#E6E7E8" points="3 128 3 265.768544 3 482.923512 447.017463 482.923512 91.8043508 128"></polygon>
                            <path d="M437.772324,513.240027 L95.4450791,513.240027 C91.8856962,513.240027 89,510.356684 89,506.800203 L89,460 L444.217403,460 L444.217403,506.800203 C444.217403,510.356684 441.331707,513.240027 437.772324,513.240027" id="Fill-14" fill="#9292FF"></path>
                            <path d="M196,354.423859 C222.973214,401.106155 282.71678,417.102817 329.437167,390.14945 C376.1597,363.198227 392.169414,303.503369 365.191909,256.818928 C338.218695,210.134488 278.475129,194.13997 231.754742,221.093337 L280.597027,305.621394 L196,354.423859 Z" id="Fill-15" fill="#003349"></path>
                            <path d="M172.102599,347.328378 L256.699626,298.525913 L207.857341,214 C161.136954,240.951223 145.129385,300.646081 172.102599,347.328378" id="Fill-16" fill="#3DE3C9"></path>
                            <path d="M397.484735,509.237884 L436.547836,509.237884 C442.439377,509.237884 447.215258,504.465897 447.215258,498.579159 L447.215258,456 L92,456 L92,498.579159 C92,504.465897 96.7758809,509.237884 102.667421,509.237884 L141.730522,509.237884 L113.753215,633.461756 C113.761797,633.466044 142.670251,633.461756 142.670251,633.461756 L184.355152,509.237884 L248.295314,509.237884 L254.16969,633.461756 L285.069168,633.461756 L290.919944,509.237884 L354.860106,509.237884 L396.545007,633.461756 L425.732376,633.461756 L397.484735,509.237884 Z" id="Fill-17" fill="#ADADFF"></path>
                            <polygon id="Fill-18" fill="#9292FF" points="184.433483 509 141.808853 509 141 512.55005 183.626775 512.55005"></polygon>
                            <polygon id="Fill-19" fill="#9292FF" points="355 509 397.624629 509 398.431337 512.55005 355.806708 512.55005"></polygon>
                            <polygon id="Fill-20" fill="#9292FF" points="240 512.55005 300.387216 512.55005 300.387216 509 240 509"></polygon>
                            <polygon id="Fill-74" fill="#9292FF" points="267 117.124311 269.145499 117.124311 269.145499 9 267 9"></polygon>
                            <polygon id="Fill-75" fill="#9292FF" points="273.697458 116 268.348729 125.254568 263 116"></polygon>
                            <path d="M276.134153,9.06049942 C276.134153,4.61007474 272.521132,1 268.067076,1 C263.61302,1 260,4.61007474 260,9.06049942 C260,13.5109241 263.61302,17.1209988 268.067076,17.1209988 C272.521132,17.1209988 276.134153,13.5109241 276.134153,9.06049942" id="Fill-76" fill="#FFFFFF"></path>
                            <path d="M261.145499,9.13237435 C261.145499,12.9868366 264.282219,16.1209988 268.139826,16.1209988 C271.997433,16.1209988 275.134153,12.9868366 275.134153,9.13237435 C275.134153,5.27791212 271.997433,2.14374985 268.139826,2.14374985 C264.282219,2.14374985 261.145499,5.27791212 261.145499,9.13237435 C261.145499,12.9868366 261.145499,5.27791212 261.145499,9.13237435 M277.279652,9.13237435 C277.279652,14.1680427 273.177458,18.2647487 268.139826,18.2647487 C263.100049,18.2647487 259,14.1680427 259,9.13237435 C259,4.09670596 263.100049,0 268.139826,0 C273.177458,0 277.279652,4.09670596 277.279652,9.13237435 C277.279652,14.1680427 277.279652,4.09670596 277.279652,9.13237435" id="Fill-77" fill="#9292FF"></path>
                            <polygon id="Stroke-78" fill="#9292FF" points="498 314.435146 498 316.578896 728.63471 316.578896 728.63471 170 726.489211 170 726.489211 314.435146"></polygon>
                            <path d="M498.067076,324.120999 C493.61302,324.120999 490,320.510924 490,316.060499 C490,311.610075 493.61302,308 498.067076,308 C502.521132,308 506.134153,311.610075 506.134153,316.060499 C506.134153,320.510924 502.521132,324.120999 498.067076,324.120999" id="Fill-79" fill="#FFFFFF"></path>
                            <path d="M498.139826,309.14375 C501.997433,309.14375 505.134153,312.280056 505.134153,316.132374 C505.134153,319.98898 501.997433,323.120999 498.139826,323.120999 C494.282219,323.120999 491.145499,319.98898 491.145499,316.132374 C491.145499,312.280056 494.282219,309.14375 498.139826,309.14375 C501.997433,309.14375 494.282219,309.14375 498.139826,309.14375 M498.139826,325.264749 C503.179603,325.264749 507.279652,321.168043 507.279652,316.132374 C507.279652,311.09885 503.179603,307 498.139826,307 C493.100049,307 489,311.09885 489,316.132374 C489,321.168043 493.100049,325.264749 498.139826,325.264749 C503.179603,325.264749 493.100049,325.264749 498.139826,325.264749" id="Fill-80" fill="#9292FF"></path>
                            <polygon id="Fill-81" fill="#9292FF" points="732.697458 172.254568 727.348729 163 722 172.254568"></polygon>
                        </g>
                        <g id="Page-1" transform="translate(641.000000, 0.000000)">
                            <g id="Group-3">
                                <g id="Fill-1-Clipped">
                                    <mask id="mask-2" fill="white">
                                        <use xlink:href="#path-1"></use>
                                    </mask>
                                    <g id="path-1"></g>
                                    <path d="M28.6685229,0 L6.93797259,0 C3.10569858,0 -0.000148250446,3.11074593 -0.000148250446,6.9457495 L-0.000148250446,108.816742 C-0.000148250446,112.65323 3.10569858,115.762492 6.93797259,115.762492 L144.400233,115.762492 C107.457705,78.8238679 65.5769537,36.9386238 28.6685229,0" id="Fill-1" fill="#002337" fill-rule="nonzero" mask="url(#mask-2)"></path>
                                </g>
                            </g>
                            <g id="Group-6" transform="translate(28.167585, 0.000000)">
                                <g id="Fill-4-Clipped">
                                    <mask id="mask-4" fill="white">
                                        <use xlink:href="#path-3"></use>
                                    </mask>
                                    <g id="path-3"></g>
                                    <path d="M138.34776,115.762492 C142.178552,115.762492 145.285881,112.65323 145.285881,108.816742 L145.285881,6.9457495 C145.285881,3.11074593 142.178552,0 138.34776,0 L0.501531256,0 C37.4099621,36.9386238 79.2892304,78.8238679 116.233241,115.762492 L138.34776,115.762492 Z" id="Fill-4" fill="#003349" fill-rule="nonzero" mask="url(#mask-4)"></path>
                                </g>
                            </g>
                            <path d="M109.770411,61.8306762 C112.716148,60.0244845 112.716148,55.738304 109.770411,53.9321123 L74.6869436,32.4284874 C71.6048168,30.5406683 67.6465299,32.7609336 67.6465299,36.3777694 L67.6465299,38.7805831 L97.9237184,69.0910622 L109.770411,61.8306762 Z" id="Fill-7" fill="#3DE3C9" fill-rule="nonzero"></path>
                            <path d="M67.6465299,38.7802863 L67.6465299,79.3847224 C67.6465299,83.0030423 71.6048168,85.2218234 74.6869436,83.3340043 L97.9237184,69.0907654 L67.6465299,38.7802863 Z" id="Fill-9" fill="#00C3B9" fill-rule="nonzero"></path>
                        </g>
                    </g>
                    <g id="check_list" transform="translate(206.000000, 0.000000)">
                        <path d="M121.25,174 L3.75,174 C1.67875,174 0,172.330843 0,170.271429 L0,16.1571429 C0,14.0977286 1.67875,12.4285714 3.75,12.4285714 L121.25,12.4285714 C123.32125,12.4285714 125,14.0977286 125,16.1571429 L125,170.271429 C125,172.330843 123.32125,174 121.25,174 Z" id="Fill-1" fill="#003349" fill-rule="nonzero"></path>
                        <polygon id="Fill-3" fill="#FFFFFF" fill-rule="nonzero" points="93.75 167.785714 6.25 167.785714 6.25 18.6428571 118.75 18.6428571 118.75 142.927329"></polygon>
                        <path d="M87.5,23.0760043 L37.5,23.0760043 L37.5,11.8952614 C37.5,9.83336143 39.18125,8.16171857 41.255,8.16171857 L83.745,8.16171857 C85.81875,8.16171857 87.5,9.83336143 87.5,11.8952614 L87.5,23.0760043 Z" id="Fill-5" fill="#6969FF" fill-rule="nonzero"></path>
                        <path d="M70,8.16171857 C70,4.04413286 66.64125,0.704575714 62.5,0.704575714 C58.35875,0.704575714 55,4.04413286 55,8.16171857 C55,12.2805471 58.35875,15.6188614 62.5,15.6188614 C66.64125,15.6188614 70,12.2805471 70,8.16171857" id="Fill-7" fill="#6969FF" fill-rule="nonzero"></path>
                        <path d="M87.5,22.3714286 L37.5,22.3714286 L37.5,11.1906857 C37.5,9.12878571 39.18125,7.45714286 41.255,7.45714286 L83.745,7.45714286 C85.81875,7.45714286 87.5,9.12878571 87.5,11.1906857 L87.5,22.3714286 Z" id="Fill-9" fill="#9292FF" fill-rule="nonzero"></path>
                        <path d="M70,7.45714286 C70,3.33955714 66.64125,0 62.5,0 C58.35875,0 55,3.33955714 55,7.45714286 C55,11.5747286 58.35875,14.9142857 62.5,14.9142857 C66.64125,14.9142857 70,11.5747286 70,7.45714286" id="Fill-11" fill="#9292FF" fill-rule="nonzero"></path>
                        <path d="M65.625,8.16171857 C65.625,9.87810429 64.22625,11.2688614 62.5,11.2688614 C60.77375,11.2688614 59.375,9.87810429 59.375,8.16171857 C59.375,6.44533286 60.77375,5.05457571 62.5,5.05457571 C64.22625,5.05457571 65.625,6.44533286 65.625,8.16171857" id="Fill-13" fill="#00B4AA" fill-rule="nonzero"></path>
                        <path d="M65.625,7.45714286 C65.625,9.17352857 64.22625,10.5642857 62.5,10.5642857 C60.77375,10.5642857 59.375,9.17352857 59.375,7.45714286 C59.375,5.74075714 60.77375,4.35 62.5,4.35 C64.22625,4.35 65.625,5.74075714 65.625,7.45714286" id="Fill-15" fill="#3DE3C9" fill-rule="nonzero"></path>
                        <polygon id="Fill-17" fill="#D1D3D4" fill-rule="nonzero" points="93.75 142.928571 118.75 142.928571 93.75 167.785714"></polygon>
                        <path d="M42.5,52.8214286 C42.5,59.3427 37.18375,64.6285714 30.625,64.6285714 C24.06625,64.6285714 18.75,59.3427 18.75,52.8214286 C18.75,46.3001571 24.06625,41.0142857 30.625,41.0142857 C37.18375,41.0142857 42.5,46.3001571 42.5,52.8214286" id="Fill-19" fill="#3DE3C9" fill-rule="nonzero"></path>
                        <g id="Fill-21-Clipped">
                            <mask id="mask-6" fill="white">
                                <use xlink:href="#path-5"></use>
                            </mask>
                            <g id="path-5"></g>
                            <polygon id="Fill-21" fill="#3DE3C9" fill-rule="nonzero" mask="url(#mask-6)" points="51.875 45.3642857 106.25 45.3642857 106.25 42.8785714 51.875 42.8785714"></polygon>
                        </g>
                        <g id="Fill-23-Clipped">
                            <mask id="mask-8" fill="white">
                                <use xlink:href="#path-7"></use>
                            </mask>
                            <g id="path-5"></g>
                            <polygon id="Fill-23" fill="#3DE3C9" fill-rule="nonzero" mask="url(#mask-8)" points="51.875 54.0642857 106.25 54.0642857 106.25 51.5785714 51.875 51.5785714"></polygon>
                        </g>
                        <g id="Fill-24-Clipped">
                            <mask id="mask-10" fill="white">
                                <use xlink:href="#path-9"></use>
                            </mask>
                            <g id="path-5"></g>
                            <polygon id="Fill-24" fill="#3DE3C9" fill-rule="nonzero" mask="url(#mask-10)" points="51.875 62.7642857 106.25 62.7642857 106.25 60.2785714 51.875 60.2785714"></polygon>
                        </g>
                        <g id="Fill-25-Clipped">
                            <mask id="mask-12" fill="white">
                                <use xlink:href="#path-11"></use>
                            </mask>
                            <g id="path-5"></g>
                            <polygon id="Fill-25" fill="#003349" fill-rule="nonzero" mask="url(#mask-12)" points="51.875 85.7571429 106.25 85.7571429 106.25 83.2714286 51.875 83.2714286"></polygon>
                        </g>
                        <g id="Fill-26-Clipped">
                            <mask id="mask-14" fill="white">
                                <use xlink:href="#path-13"></use>
                            </mask>
                            <g id="path-5"></g>
                            <polygon id="Fill-26" fill="#D1D3D4" fill-rule="nonzero" mask="url(#mask-14)" points="24.375 90.7285714 36.875 90.7285714 36.875 78.3 24.375 78.3"></polygon>
                        </g>
                        <g id="Fill-27-Clipped">
                            <mask id="mask-16" fill="white">
                                <use xlink:href="#path-15"></use>
                            </mask>
                            <g id="path-5"></g>
                            <polygon id="Fill-27" fill="#003349" fill-rule="nonzero" mask="url(#mask-16)" points="51.875 104.4 106.25 104.4 106.25 101.914286 51.875 101.914286"></polygon>
                        </g>
                        <g id="Fill-28-Clipped">
                            <mask id="mask-18" fill="white">
                                <use xlink:href="#path-17"></use>
                            </mask>
                            <g id="path-5"></g>
                            <polygon id="Fill-28" fill="#D1D3D4" fill-rule="nonzero" mask="url(#mask-18)" points="24.375 109.371429 36.875 109.371429 36.875 96.9428571 24.375 96.9428571"></polygon>
                        </g>
                        <g id="Fill-29-Clipped">
                            <mask id="mask-20" fill="white">
                                <use xlink:href="#path-19"></use>
                            </mask>
                            <g id="path-5"></g>
                            <polygon id="Fill-29" fill="#003349" fill-rule="nonzero" mask="url(#mask-20)" points="51.875 123.042857 106.25 123.042857 106.25 120.557143 51.875 120.557143"></polygon>
                        </g>
                        <g id="Fill-30-Clipped">
                            <mask id="mask-22" fill="white">
                                <use xlink:href="#path-21"></use>
                            </mask>
                            <g id="path-5"></g>
                            <polygon id="Fill-30" fill="#D1D3D4" fill-rule="nonzero" mask="url(#mask-22)" points="24.375 128.014286 36.875 128.014286 36.875 115.585714 24.375 115.585714"></polygon>
                        </g>
                        <g id="Fill-31-Clipped">
                            <mask id="mask-24" fill="white">
                                <use xlink:href="#path-23"></use>
                            </mask>
                            <g id="path-5"></g>
                            <polygon id="Fill-31" fill="#003349" fill-rule="nonzero" mask="url(#mask-24)" points="31.795625 88.7575243 25.990625 82.9856957 27.759375 81.2282957 31.795625 85.2427243 40.990625 76.0990243 42.759375 77.8564243"></polygon>
                        </g>
                        <g id="Fill-32-Clipped">
                            <mask id="mask-26" fill="white">
                                <use xlink:href="#path-25"></use>
                            </mask>
                            <g id="path-5"></g>
                            <polygon id="Fill-32" fill="#003349" fill-rule="nonzero" mask="url(#mask-26)" points="31.795625 107.400381 25.990625 101.628553 27.759375 99.8711529 31.795625 103.885581 40.990625 94.7418814 42.759375 96.4992814"></polygon>
                        </g>
                        <g id="Fill-33-Clipped">
                            <mask id="mask-28" fill="white">
                                <use xlink:href="#path-27"></use>
                            </mask>
                            <g id="path-5"></g>
                            <polygon id="Fill-33" fill="#003349" fill-rule="nonzero" mask="url(#mask-28)" points="31.795625 126.043239 25.990625 120.27141 27.759375 118.51401 31.795625 122.528439 40.990625 113.384739 42.759375 115.142139"></polygon>
                        </g>
                    </g>
                </g>
            </g>
        </g>
    </g>
</svg>